#!OML:ASF F:\VICON\USERDATA\INSTALL\rory3\rory3.ASF
:FULLY-SPECIFIED
:DEGREES
79
root 0.22731545301212042 17.663483729303625 46.3299298792124 -3.1400061069384377 -3.60446428487866 -2.892168472674233
lfemur -7.007456522879081 0.1269513158811748 -16.28739732143157
ltibia 65.26131607678559
lfoot -0.9256808784225594 -10.53507398936023
ltoes -3.0740115366014518
rfemur -17.35899737370325 2.6946290411352996 30.066452282786912
rtibia 33.886672727413384
rfoot -11.242635254388643 -3.291190221706829
rtoes 8.920235626482379
lowerback 10.456546331968259 -1.1185866033419116 1.67337369944208
upperback 0.11195626833191052 -1.1799129574776779 2.1997610624479593
thorax -5.125455310435188 -0.6577126786417963 1.8435548200089587
lowerneck -15.829637643636891 -2.6835920160016777 -3.4734550008009433
upperneck 21.782711860689158 -3.1871851108463742 1.3258459412318813
head 9.489089238773884 -1.600293585196775 0.8223373881259881
lclavicle 1.4632994931968435e-16 2.3648356572022256e-16
lhumerus -30.25193313621109 5.029567247706741 80.44905504982832
lradius 28.394322085438365
lwrist 5.400747937047158
lhand -29.506114286294377 20.65477714105408
lfingers 7.12502
lthumb -2.9916192809790223 50.21294809292759
rclavicle 1.4689680360309284e-16 2.3694166607350525e-16
rhumerus -28.748254653160462 -20.858474333772353 -75.45752413724816
rradius 20.541866904383454
rwrist 10.144675156725857
rhand -17.937346508710775 22.52670910251396
rfingers 7.12502
rthumb 8.436772987833569 -7.811518714203225
80
root 0.21618887663254746 17.647012842459663 47.080696622139016 -3.047006391395947 -4.162894411216895 -3.3849856643302942
lfemur -12.556155249830251 0.9787461910347601 -15.458639640754313
ltibia 67.83507935816299
lfoot -4.665861694454948 -6.34199114724704
ltoes -3.2604522233352022
rfemur -16.00065026604485 2.1079365717958725 30.956983926097365
rtibia 35.40079351042644
rfoot -13.49788121026517 -3.964571442915406
rtoes 7.660763360615148
lowerback 10.778322686849265 -0.854986230106646 2.3904114241552032
upperback 0.12118531980329328 -0.7491493166745695 2.117755571312289
thorax -5.199876412239561 -0.4730367010844544 1.31342511528446
lowerneck -15.788304779283653 -2.7104445860450967 -3.475098514992906
upperneck 21.863858371059848 -3.2218440370166177 1.3410255924372434
head 9.519570514105613 -1.6114440537981078 0.831164586442981
lclavicle 1.4640428266385468e-16 2.3654009659131726e-16
lhumerus -31.458076704421504 5.908808761567249 80.50518397689964
lradius 27.544918006877133
lwrist 6.397765003409208
lhand -29.649149242807926 20.21015977518644
lfingers 7.12502
lthumb -2.9957096184219223 50.00791557198097
rclavicle 1.4694265719414822e-16 2.3697691326957323e-16
rhumerus -27.557121639069745 -19.097148391617875 -76.60675770070506
rradius 21.92737246688668
rwrist 8.468739342309286
rhand -18.04475183800963 22.245735798864352
rfingers 7.12502
rthumb 8.27494627618551 -8.214273875411756
81
root 0.2086576907106471 17.62386487596747 47.85659725605664 -2.863173564882474 -5.031849533722712 -3.8267093218081123
lfemur -17.353240125100722 2.0340787842499677 -14.740150542631802
ltibia 67.6345083563927
lfoot -6.522751633558061 -2.542070109980682
ltoes -4.071780218174729
rfemur -14.93830020513229 1.9355907208560035 31.447417738363818
rtibia 37.09230717398716
rfoot -15.521557223263521 -4.441318541921882
rtoes 7.513175121484425
lowerback 11.092604090388203 -0.44103681909453146 2.8700573690459183
upperback 0.16124782281174005 -0.10848616832408864 2.0632007638114827
thorax -5.229551220559345 -0.15850826920866523 0.7778943684220541
lowerneck -15.787406204797378 -2.724003025072679 -3.4662467027367487
upperneck 21.91106355871809 -3.234661630795778 1.3140233935794607
head 9.553517361795553 -1.6173414417535052 0.8351834321023166
lclavicle 1.4542737772000407e-16 2.3578939680368327e-16
lhumerus -32.55045385064261 6.750394228099456 80.4805022168872
lradius 26.596910828861148
lwrist 7.079134233903616
lhand -29.81817755563324 19.657154890641756
lfingers 7.12502
lthumb -3.1528525546985025 49.29154353958953
rclavicle 1.4742285964263224e-16 2.3734616876351713e-16
rhumerus -26.470778569896492 -17.467618702920227 -77.544485896034
rradius 23.280029113768634
rwrist 6.97247863305927
rhand -18.157002672722406 22.26147417713849
rfingers 7.12502
rthumb 8.084379889951752 -8.046826654492598
82
root 0.19857015888702634 17.594752859609194 48.359262007187965 -2.762529023199376 -5.571499511817398 -4.010457469724565
lfemur -21.417680889871363 2.3831497531495334 -14.326723714778261
ltibia 64.47776045178846
lfoot -7.061747761666377 0.5263723393887005
ltoes -2.5947788738737434
rfemur -13.825888824083144 1.7363746155030724 31.531757548685352
rtibia 38.228870426290094
rfoot -17.079524506813293 -5.404016293820466
rtoes 7.391698160410737
lowerback 11.264475918975391 -0.13976228903292975 3.2324739267486358
upperback 0.22523206521174632 0.3728195414194951 1.991350641750107
thorax -5.134916100744933 0.0628782880429199 0.281882880194289
lowerneck -15.83518773537066 -2.7194821063738117 -3.408132678763129
upperneck 21.968588741009075 -3.223546483993702 1.2502315111907278
head 9.590630566423599 -1.6152104041857744 0.8198697294365161
lclavicle 1.4594011151628056e-16 2.3618571074904974e-16
lhumerus -33.67684483653582 7.56017575297364 80.35829310503942
lradius 25.519939580123236
lwrist 7.161021465162542
lhand -29.94361077166864 19.35671688465141
lfingers 7.12502
lthumb -3.3270893250336107 48.80924967501228
rclavicle 1.4688914347420352e-16 2.369357740356992e-16
rhumerus -25.59655037293576 -16.351231596037852 -78.30659001271133
rradius 24.43501961506849
rwrist 6.020078585558116
rhand -18.27428670713357 22.43060931605678
rfingers 7.12502
rthumb 7.874783051271299 -7.7882234933478856
83
root 0.19807950620621737 17.599920625231498 48.6218970891041 -2.536091594928117 -6.318527264811927 -3.9558830968488756
lfemur -24.101126158230343 1.6392518347320846 -13.784169558391373
ltibia 58.92866256474704
lfoot -6.59449705037681 1.9034263390540636
ltoes -1.5574319490621173
rfemur -12.798869907207415 1.9601378198141777 31.331684731496097
rtibia 38.09560369753567
rfoot -17.74922245997115 -6.803285074834051
rtoes 6.090823564901012
lowerback 11.180957537618102 0.24574262309909883 3.2543676646767272
upperback 0.2138799795391918 0.9120582402344484 1.9153978479985163
thorax -4.995265607869634 0.3589428603922226 -0.1685335494361817
lowerneck -15.906081675754463 -2.718941792156976 -3.372382910651747
upperneck 22.09214098638641 -3.201830908205835 1.2155486128233446
head 9.640281428990695 -1.610542259577968 0.8280643203301068
lclavicle 1.4644640863089862e-16 2.36573249579487e-16
lhumerus -34.73820458579294 8.489303059152457 80.1203690211923
lradius 24.3136234275877
lwrist 6.948840767969982
lhand -29.87805475395283 19.026473073505176
lfingers 7.12502
lthumb -3.244454965013177 48.348773921933685
rclavicle 1.4741089495290653e-16 2.3733699230822414e-16
rhumerus -24.982522433934523 -15.435185742460952 -78.96284500711432
rradius 25.486267694535417
rwrist 5.437756458905863
rhand -18.375707693020797 22.56726737177509
rfingers 7.12502
rthumb 7.789393690949623 -7.579806086705359
84
root 0.19840717613061742 17.57782163546134 48.87496407940357 -2.4351830278172906 -7.127902497894162 -4.130050744277582
lfemur -25.29974024451401 -0.477067165164631 -12.633178103420665
ltibia 51.24821504680979
lfoot -6.0355893516926455 2.7694916253720674
ltoes -2.311319130715712
rfemur -11.79326073901518 2.1405602199472646 31.386185856678082
rtibia 37.400789487315215
rfoot -18.524019537684577 -7.929625407263787
rtoes 4.484927491169628
lowerback 11.290202956812387 0.5796808893056483 3.4980184899410047
upperback 0.18117988280351735 1.4057506274330906 1.8653649169416162
thorax -5.108935616509922 0.5908663556288254 -0.657378068719501
lowerneck -15.942662157951174 -2.7287415877555765 -3.300139817841725
upperneck 22.141510172680295 -3.2229502106105725 1.2149446819999352
head 9.639333765345464 -1.6202166544081256 0.8351840028197351
lclavicle 1.4748730712690498e-16 2.3737186067348843e-16
lhumerus -35.63240844501387 9.325994368753562 79.8874231580924
lradius 22.983771131801205
lwrist 6.066844829316846
lhand -29.341209658810605 18.92020624911655
lfingers 7.12502
lthumb -2.8222874087978664 48.32461761358619
rclavicle 1.471506920366301e-16 2.3713687182031913e-16
rhumerus -24.387984531737345 -14.714979750532637 -79.66342316587081
rradius 26.092073974433163
rwrist 4.980596198334215
rhand -18.418655982550572 22.776745002719423
rfingers 7.12502
rthumb 7.7212201604453545 -7.293396167167085
